# xmcd
#
# Track frame offsets:
#	150
#	16708
#	38778
#	55818
#	73265
#	95865
#	117075
#	139073
#	155998
#	175323
#	192498
#	213218
#	230805
#	249805
#	268855
#	290528
#	310408
#	327473
#
# Disc length: 4628 seconds
#
# Revision: 6
# Processed by: cddbd v1.5.2PL0 Copyright (c) Steve Scherf et al.
# Submitted via: EasyCDDAExtractor 2011.0.0.0
#
DISCID=16121212
DTITLE=Eurythmics - Greatest Hits
DYEAR=1991
DGENRE=Pop
TTITLE0=Love is a stranger
TTITLE1=Sweet dreams (Are Made Of This)
TTITLE2=Who's that girl?
TTITLE3=Right by your side
TTITLE4=Here comes the rain again
TTITLE5=There must be an angel (Playing With My Heart)
TTITLE6=Sisters are doin' it for themselves
TTITLE7=It's alright (Baby Is Coming Back)
TTITLE8=When tomorrow comes
TTITLE9=You have placed a chill in my heart
TTITLE10=Miracle of love
TTITLE11=Sex crime (1984)
TTITLE12=Thorn in my side
TTITLE13=Don't ask me why
TTITLE14=Angel
TTITLE15=Would i lie to you?
TTITLE16=Missionary man
TTITLE17=I need a man
EXTD=
EXTT0=
EXTT1=
EXTT2=
EXTT3=
EXTT4=
EXTT5=
EXTT6=
EXTT7=
EXTT8=
EXTT9=
EXTT10=
EXTT11=
EXTT12=
EXTT13=
EXTT14=
EXTT15=
EXTT16=
EXTT17=
PLAYORDER=
